
<svg id="visual" viewBox="0 0 960 540" width="960" height="540" xmlns="http://www.w3.org/2000/svg" xmlns:xlink="http://www.w3.org/1999/xlink" version="1.1">
    <rect x="0" y="0" width="960" height="540" fill="#001220">
    </rect>
    <defs>
        <linearGradient id="grad1_0" x1="43.8%" y1="100%" x2="100%" y2="0%">
            <stop offset="14.444444444444446%" stop-color="#6600ff" stop-opacity="1">
            </stop>
            <stop offset="85.55555555555554%" stop-color="#6600ff" stop-opacity="1">
            </stop>
        </linearGradient>
    </defs>
    <defs>
        <linearGradient id="grad1_1" x1="43.8%" y1="100%" x2="100%" y2="0%">
            <stop offset="14.444444444444446%" stop-color="#6600ff" stop-opacity="1"></stop>
            <stop offset="85.55555555555554%" stop-color="#0035c1" stop-opacity="1"></stop>
        </linearGradient>
    </defs>
    <defs>
        <linearGradient id="grad1_2" x1="43.8%" y1="100%" x2="100%" y2="0%">
            <stop offset="14.444444444444446%" stop-color="#002a70" stop-opacity="1"></stop>
            <stop offset="85.55555555555554%" stop-color="#0035c1" stop-opacity="1"></stop>
        </linearGradient>
    </defs>
    <defs>
        <linearGradient id="grad1_3" x1="43.8%" y1="100%" x2="100%" y2="0%">
            <stop offset="14.444444444444446%" stop-color="#002a70" stop-opacity="1"></stop>
            <stop offset="85.55555555555554%" stop-color="#001220" stop-opacity="1"></stop>
        </linearGradient>
    </defs>
    <defs>
        <linearGradient id="grad2_0" x1="0%" y1="100%" x2="56.3%" y2="0%">
            <stop offset="14.444444444444446%" stop-color="#6600ff" stop-opacity="1"></stop>
            <stop offset="85.55555555555554%" stop-color="#6600ff" stop-opacity="1"></stop>
        </linearGradient>
    </defs>
    <defs>
        <linearGradient id="grad2_1" x1="0%" y1="100%" x2="56.3%" y2="0%">
            <stop offset="14.444444444444446%" stop-color="#0035c1" stop-opacity="1"></stop>
            <stop offset="85.55555555555554%" stop-color="#6600ff" stop-opacity="1"></stop>
        </linearGradient>
    </defs>
    <defs>
        <linearGradient id="grad2_2" x1="0%" y1="100%" x2="56.3%" y2="0%">
            <stop offset="14.444444444444446%" stop-color="#0035c1" stop-opacity="1"></stop>
            <stop offset="85.55555555555554%" stop-color="#002a70" stop-opacity="1"></stop>
        </linearGradient>
    </defs>
    <defs>
        <linearGradient id="grad2_3" x1="0%" y1="100%" x2="56.3%" y2="0%">
            <stop offset="14.444444444444446%" stop-color="#001220" stop-opacity="1"></stop>
            <stop offset="85.55555555555554%" stop-color="#002a70" stop-opacity="1"></stop>
        </linearGradient>
    </defs>
    <g transform="translate(960, 540)">
        <path d="M-352 0C-338 -42 -324 -84 -312.3 -129.3C-300.5 -174.7 -291 -223.4 -263.8 -263.8C-236.5 -304.1 -191.6 -335.9 -144.7 -349.2C-97.7 -362.5 -48.9 -357.3 0 -352L0 0Z" fill="#001f47"></path>
        <path d="M-264 0C-253.5 -31.5 -243 -63 -234.2 -97C-225.4 -131 -218.2 -167.6 -197.8 -197.8C-177.4 -228 -143.7 -251.9 -108.5 -261.9C-73.3 -271.9 -36.7 -267.9 0 -264L0 0Z" fill="#003299"></path>
        <path d="M-176 0C-169 -21 -162 -42 -156.1 -64.7C-150.3 -87.4 -145.5 -111.7 -131.9 -131.9C-118.3 -152 -95.8 -168 -72.3 -174.6C-48.9 -181.3 -24.4 -178.6 0 -176L0 0Z" fill="#002fe3"></path>
        <path d="M-88 0C-84.5 -10.5 -81 -21 -78.1 -32.3C-75.1 -43.7 -72.7 -55.9 -65.9 -65.9C-59.1 -76 -47.9 -84 -36.2 -87.3C-24.4 -90.6 -12.2 -89.3 0 -88L0 0Z" fill="#6600ff"></path>
    </g>
    <g transform="translate(0, 0)">
        <path d="M363 0C368.9 54.5 374.7 109 349.2 144.7C323.7 180.3 266.8 197.2 229.1 229.1C191.4 261 172.8 307.9 137.8 332.6C102.8 357.3 51.4 359.6 0 362L0 0Z" fill="#001f47"></path>
        <path d="M272.3 0C276.6 40.9 281 81.7 261.9 108.5C242.8 135.2 200.1 147.9 171.8 171.8C143.5 195.8 129.6 231 103.3 249.4C77.1 267.9 38.5 269.7 0 271.5L0 0Z" fill="#003299"></path>
        <path d="M181.5 0C184.4 27.2 187.4 54.5 174.6 72.3C161.9 90.2 133.4 98.6 114.6 114.6C95.7 130.5 86.4 154 68.9 166.3C51.4 178.6 25.7 179.8 0 181L0 0Z" fill="#002fe3"></path>
        <path d="M90.8 0C92.2 13.6 93.7 27.2 87.3 36.2C80.9 45.1 66.7 49.3 57.3 57.3C47.8 65.3 43.2 77 34.4 83.1C25.7 89.3 12.8 89.9 0 90.5L0 0Z" fill="#6600ff"></path>
    </g>
</svg>