<svg id="visual" viewBox="0 0 540 960" width="540" height="960" xmlns="http://www.w3.org/2000/svg" xmlns:xlink="http://www.w3.org/1999/xlink" version="1.1"><rect x="0" y="0" width="540" height="960" fill="#001220"></rect><defs><linearGradient id="grad1_0" x1="0%" y1="100%" x2="100%" y2="0%"><stop offset="30%" stop-color="#6600ff" stop-opacity="1"></stop><stop offset="70%" stop-color="#6600ff" stop-opacity="1"></stop></linearGradient></defs><defs><linearGradient id="grad1_1" x1="0%" y1="100%" x2="100%" y2="0%"><stop offset="30%" stop-color="#6600ff" stop-opacity="1"></stop><stop offset="70%" stop-color="#0035c1" stop-opacity="1"></stop></linearGradient></defs><defs><linearGradient id="grad1_2" x1="0%" y1="100%" x2="100%" y2="0%"><stop offset="30%" stop-color="#002a70" stop-opacity="1"></stop><stop offset="70%" stop-color="#0035c1" stop-opacity="1"></stop></linearGradient></defs><defs><linearGradient id="grad1_3" x1="0%" y1="100%" x2="100%" y2="0%"><stop offset="30%" stop-color="#002a70" stop-opacity="1"></stop><stop offset="70%" stop-color="#001220" stop-opacity="1"></stop></linearGradient></defs><defs><linearGradient id="grad2_0" x1="0%" y1="100%" x2="100%" y2="0%"><stop offset="30%" stop-color="#6600ff" stop-opacity="1"></stop><stop offset="70%" stop-color="#6600ff" stop-opacity="1"></stop></linearGradient></defs><defs><linearGradient id="grad2_1" x1="0%" y1="100%" x2="100%" y2="0%"><stop offset="30%" stop-color="#0035c1" stop-opacity="1"></stop><stop offset="70%" stop-color="#6600ff" stop-opacity="1"></stop></linearGradient></defs><defs><linearGradient id="grad2_2" x1="0%" y1="100%" x2="100%" y2="0%"><stop offset="30%" stop-color="#0035c1" stop-opacity="1"></stop><stop offset="70%" stop-color="#002a70" stop-opacity="1"></stop></linearGradient></defs><defs><linearGradient id="grad2_3" x1="0%" y1="100%" x2="100%" y2="0%"><stop offset="30%" stop-color="#001220" stop-opacity="1"></stop><stop offset="70%" stop-color="#002a70" stop-opacity="1"></stop></linearGradient></defs><g transform="translate(540, 960)"><path d="M-430 0C-439.7 -64.4 -449.3 -128.8 -424.1 -175.7C-398.8 -222.5 -338.6 -251.8 -294.2 -294.2C-249.7 -336.5 -220.9 -392 -174.5 -421.3C-128.1 -450.6 -64 -453.8 0 -457L0 0Z" fill="#001f47"></path><path d="M-322.5 0C-329.7 -48.3 -337 -96.6 -318 -131.7C-299.1 -166.9 -254 -188.8 -220.6 -220.6C-187.3 -252.4 -165.7 -294 -130.9 -316C-96.1 -338 -48 -340.4 0 -342.7L0 0Z" fill="#003299"></path><path d="M-215 0C-219.8 -32.2 -224.7 -64.4 -212 -87.8C-199.4 -111.2 -169.3 -125.9 -147.1 -147.1C-124.8 -168.3 -110.5 -196 -87.3 -210.6C-64 -225.3 -32 -226.9 0 -228.5L0 0Z" fill="#002fe3"></path><path d="M-107.5 0C-109.9 -16.1 -112.3 -32.2 -106 -43.9C-99.7 -55.6 -84.7 -62.9 -73.5 -73.5C-62.4 -84.1 -55.2 -98 -43.6 -105.3C-32 -112.7 -16 -113.5 0 -114.2L0 0Z" fill="#6600ff"></path></g><g transform="translate(0, 0)"><path d="M459 0C447.6 63 436.2 125.9 401 166.1C365.8 206.2 306.8 223.6 269.4 269.4C232 315.2 216.2 389.5 174.9 422.2C133.6 454.9 66.8 445.9 0 437L0 0Z" fill="#001f47"></path><path d="M344.3 0C335.7 47.2 327.1 94.4 300.7 124.6C274.3 154.7 230.1 167.7 202.1 202.1C174 236.4 162.1 292.2 131.2 316.7C100.2 341.2 50.1 334.5 0 327.8L0 0Z" fill="#003299"></path><path d="M229.5 0C223.8 31.5 218.1 63 200.5 83C182.9 103.1 153.4 111.8 134.7 134.7C116 157.6 108.1 194.8 87.4 211.1C66.8 227.4 33.4 223 0 218.5L0 0Z" fill="#002fe3"></path><path d="M114.8 0C111.9 15.7 109 31.5 100.2 41.5C91.4 51.6 76.7 55.9 67.4 67.4C58 78.8 54 97.4 43.7 105.6C33.4 113.7 16.7 111.5 0 109.3L0 0Z" fill="#6600ff"></path></g></svg>