<svg id="visual" viewBox="0 0 540 2000" width="540" height="2000" xmlns="http://www.w3.org/2000/svg" xmlns:xlink="http://www.w3.org/1999/xlink" version="1.1"><rect x="0" y="0" width="540" height="2000" fill="#001220"></rect><defs><linearGradient id="grad1_0" x1="0%" y1="100%" x2="100%" y2="0%"><stop offset="30%" stop-color="#6600ff" stop-opacity="1"></stop><stop offset="70%" stop-color="#6600ff" stop-opacity="1"></stop></linearGradient></defs><defs><linearGradient id="grad1_1" x1="0%" y1="100%" x2="100%" y2="0%"><stop offset="30%" stop-color="#6600ff" stop-opacity="1"></stop><stop offset="70%" stop-color="#0035c1" stop-opacity="1"></stop></linearGradient></defs><defs><linearGradient id="grad1_2" x1="0%" y1="100%" x2="100%" y2="0%"><stop offset="30%" stop-color="#002a70" stop-opacity="1"></stop><stop offset="70%" stop-color="#0035c1" stop-opacity="1"></stop></linearGradient></defs><defs><linearGradient id="grad1_3" x1="0%" y1="100%" x2="100%" y2="0%"><stop offset="30%" stop-color="#002a70" stop-opacity="1"></stop><stop offset="70%" stop-color="#001220" stop-opacity="1"></stop></linearGradient></defs><defs><linearGradient id="grad2_0" x1="0%" y1="100%" x2="100%" y2="0%"><stop offset="30%" stop-color="#6600ff" stop-opacity="1"></stop><stop offset="70%" stop-color="#6600ff" stop-opacity="1"></stop></linearGradient></defs><defs><linearGradient id="grad2_1" x1="0%" y1="100%" x2="100%" y2="0%"><stop offset="30%" stop-color="#0035c1" stop-opacity="1"></stop><stop offset="70%" stop-color="#6600ff" stop-opacity="1"></stop></linearGradient></defs><defs><linearGradient id="grad2_2" x1="0%" y1="100%" x2="100%" y2="0%"><stop offset="30%" stop-color="#0035c1" stop-opacity="1"></stop><stop offset="70%" stop-color="#002a70" stop-opacity="1"></stop></linearGradient></defs><defs><linearGradient id="grad2_3" x1="0%" y1="100%" x2="100%" y2="0%"><stop offset="30%" stop-color="#001220" stop-opacity="1"></stop><stop offset="70%" stop-color="#002a70" stop-opacity="1"></stop></linearGradient></defs><g transform="translate(540, 2000)"><path d="M-465 0C-491.4 -72.2 -517.7 -144.4 -498.9 -206.6C-480.1 -268.9 -416.1 -321.2 -355.7 -355.7C-295.3 -390.2 -238.5 -407 -179.9 -434.2C-121.2 -461.5 -60.6 -499.2 0 -537L0 0Z" fill="#001f47"></path><path d="M-348.7 0C-368.5 -54.2 -388.3 -108.3 -374.2 -155C-360.1 -201.7 -312 -240.9 -266.8 -266.8C-221.5 -292.6 -178.9 -305.2 -134.9 -325.7C-90.9 -346.1 -45.4 -374.4 0 -402.7L0 0Z" fill="#003299"></path><path d="M-232.5 0C-245.7 -36.1 -258.9 -72.2 -249.4 -103.3C-240 -134.4 -208 -160.6 -177.8 -177.8C-147.6 -195.1 -119.3 -203.5 -89.9 -217.1C-60.6 -230.7 -30.3 -249.6 0 -268.5L0 0Z" fill="#002fe3"></path><path d="M-116.2 0C-122.8 -18.1 -129.4 -36.1 -124.7 -51.7C-120 -67.2 -104 -80.3 -88.9 -88.9C-73.8 -97.5 -59.6 -101.7 -45 -108.6C-30.3 -115.4 -15.1 -124.8 0 -134.2L0 0Z" fill="#6600ff"></path></g><g transform="translate(0, 0)"><path d="M540 0C522.2 70.5 504.5 140.9 468.4 194C432.3 247.1 378 282.8 333 333C288.1 383.3 252.6 448.2 198.6 479.5C144.7 510.8 72.3 508.4 0 506L0 0Z" fill="#001f47"></path><path d="M405 0C391.7 52.9 378.3 105.7 351.3 145.5C324.3 185.3 283.5 212.1 249.8 249.8C216.1 287.5 189.4 336.2 149 359.6C108.5 383.1 54.3 381.3 0 379.5L0 0Z" fill="#003299"></path><path d="M270 0C261.1 35.2 252.2 70.5 234.2 97C216.2 123.5 189 141.4 166.5 166.5C144 191.7 126.3 224.1 99.3 239.7C72.3 255.4 36.2 254.2 0 253L0 0Z" fill="#002fe3"></path><path d="M135 0C130.6 17.6 126.1 35.2 117.1 48.5C108.1 61.8 94.5 70.7 83.3 83.3C72 95.8 63.1 112.1 49.7 119.9C36.2 127.7 18.1 127.1 0 126.5L0 0Z" fill="#6600ff"></path></g></svg>